/* XPM */
static char * gear_small_xpm[] = {
"19 21 44 1",
".	c none",
"+	c #212121",
"@	c #393939",
"#	c #393139",
"$	c #525252",
"%	c #111111",
"&	c #191919",
"*	c #F7F3F7",
"=	c #D7D3D7",
"-	c #EFEBEF",
";	c #E7E3E7",
">	c #8E8286",
",	c #797979",
"'	c #CFCBCF",
")	c #CFC3C7",
"!	c #616161",
"~	c #717171",
"{	c #8E8A8E",
"]	c #DFDBDF",
"^	c #D7D3CF",
"/	c #C7C3C7",
"(	c #716971",
"_	c #FFFBFF",
":	c #BEBABE",
"<	c #B6B2B6",
"[	c #AEAAAE",
"}	c #424242",
"|	c #A6A2A6",
"1	c #9E9A9E",
"2	c #AEB2B6",
"3	c #969296",
"4	c #313131",
"5	c #8E8A96",
"6	c #868286",
"7	c #AEAAA6",
"8	c #8E8A86",
"9	c #524A4A",
"0	c #4A4A4A",
"a	c #696969",
"b	c #5A5A5A",
"c	c #696161",
"d	c #423942",
"e	c #5A525A",
"f	c #292929",
"...................",
"........+.@#$......",
"......+%&%%%%&.....",
"....*%%%=%%%&%.....",
"...-;>%,')!%%%&~+..",
"...{]=^'//&%%%&%%(.",
"._;]^'//:<[}/&%%%%.",
":==''/::<[||1{%%%+.",
"-='//:<2[|113{$%&..",
".4/:<[344335{64%%%.",
"..:<274%%~{86,%%%%%",
"<-27|149&%6,~(%%%%0",
"<:7|13$%&%<~(a!b+}0",
".]|13{8,%%[ac!b$}0~",
".<%0{6,,__!!b$$0#d.",
"...c6,~~a!bb$9@+%%.",
"...-~(a!bb$90}&%%..",
"...:bc!be$0}}@4%...",
"....{9+&$0}4@4f....",
"........}dd%%6.....",
"........##f........"};
